<?xml version="1.0" encoding="UTF-8" standalone="no"?>
<svg
   xmlns:dc="http://purl.org/dc/elements/1.1/"
   xmlns:cc="http://creativecommons.org/ns#"
   xmlns:rdf="http://www.w3.org/1999/02/22-rdf-syntax-ns#"
   xmlns:svg="http://www.w3.org/2000/svg"
   xmlns="http://www.w3.org/2000/svg"
   id="svg18"
   version="1.1"
   width="682.66669pt"
   viewBox="-21 -21 682.66669 682.66669"
   height="682.66669pt">
  <metadata
     id="metadata24">
    <rdf:RDF>
      <cc:Work
         rdf:about="">
        <dc:format>image/svg+xml</dc:format>
        <dc:type
           rdf:resource="http://purl.org/dc/dcmitype/StillImage" />
      </cc:Work>
    </rdf:RDF>
  </metadata>
  <defs
     id="defs22" />
  <path
     id="path2"
     fill="#7ed8f6"
     d="m516.875 521c-53.625 52.5-124.5 80.25-196.875 80.25h-.375c-48 0-96.375-12.378906-140.25-37.5-10.875-6.375-21.375-13.5-31.5-21l22.875-30c8.625 6.75 17.625 12.75 27.375 18.375 37.875 21.75 79.875 32.625 121.875 32.625 62.246094 0 124.125-24 170.625-69.75zm0 0" />
  <path
     id="path4"
     fill="#6aa9ff"
     d="m516.875 521c-53.625 52.5-124.5 80.25-196.875 80.25v-37.5c62.25 0 124.125-24 170.625-69.75zm0 0" />
  <path
     id="path6"
     fill="#7ed8f6"
     d="m492.125 97.25-22.875 30c-8.625-6.75-17.625-12.75-27.375-18.375-37.875-21.75-79.875-32.625-121.875-32.625-62.25 0-124.125 24-170.625 69.75l-26.25-27c53.625-52.5 124.878906-79.875 196.875-79.875 48.375-.375 96.753906 12 140.625 37.125 10.875 6.371094 21.375 13.5 31.5 21zm0 0" />
  <path
     id="path8"
     fill="#6aa9ff"
     d="m441.875 108.875c-37.875-21.75-79.875-32.625-121.875-32.625v-37.125c48.375-.375 96.753906 12 140.625 37.125 10.875 6.371094 21.375 13.5 31.5 21l-22.875 30c-8.625-6.75-17.625-12.75-27.375-18.375zm0 0" />
  <path
     id="path10"
     fill="#dce1eb"
     d="m507.5 451.25c-72.363281 0-131.25-58.886719-131.25-131.25 0-63.445312 45.390625-117.679688 107.925781-128.941406l45.316407-8.148438-26.714844 37.480469c-9.175782 12.890625-14.027344 27.867187-14.027344 43.359375 0 41.363281 33.636719 75 75 75 15.492188 0 25.878906-4.851562 38.769531-14.027344l37.480469-26.714844-8.148438 45.316407c-11.261718 62.535156-60.90625 107.925781-124.351562 107.925781zm0 0" />
  <path
     id="path12"
     fill="#fdbf00"
     d="m132.5 451.25c-72.363281 0-132.5-58.886719-132.5-131.25s60.136719-131.25 132.5-131.25 131.25 58.886719 131.25 131.25-58.886719 131.25-131.25 131.25zm0 0" />
  <path
     id="path14"
     fill="#7ed8f6"
     d="m165.625 640-32.320312-124.683594 120.578124-32.300781 9.703126 36.222656-84.359376 22.59375 22.613282 88.460938zm0 0" />
  <path
     id="path16"
     fill="#6aa9ff"
     d="m386.117188 156.984375-9.703126-36.222656 84.359376-22.59375-22.613282-88.460938 36.214844-9.707031 32.320312 124.683594zm0 0" />
</svg>
